<svg width="40" height="40" viewBox="0 0 40 40" fill="none" xmlns="http://www.w3.org/2000/svg">
<circle cx="20" cy="20" r="19.25" fill="#EF3E28" stroke="white" stroke-width="1.5"/>
<path d="M16.25 11.5V14.5M16.25 14.5H12.75C11.6454 14.5 10.75 15.3954 10.75 16.5V18.5M16.25 14.5H24.25M24.25 11.5V14.5M24.25 14.5H27.25C28.3546 14.5 29.25 15.3954 29.25 16.5V18.5M10.75 18.5V26.5C10.75 27.6046 11.6454 28.5 12.75 28.5H27.25C28.3546 28.5 29.25 27.6046 29.25 26.5V18.5M10.75 18.5H20H29.25M25.75 25V25C25.75 24.7239 25.9739 24.5 26.25 24.5V24.5C26.5261 24.5 26.75 24.7239 26.75 25V25C26.75 25.2761 26.5261 25.5 26.25 25.5V25.5C25.9739 25.5 25.75 25.2761 25.75 25ZM26.75 22V22C26.75 22.2761 26.5261 22.5 26.25 22.5V22.5C25.9739 22.5 25.75 22.2761 25.75 22V22C25.75 21.7239 25.9739 21.5 26.25 21.5V21.5C26.5261 21.5 26.75 21.7239 26.75 22ZM23.25 21.5V21.5C23.5261 21.5 23.75 21.7239 23.75 22V22C23.75 22.2761 23.5261 22.5 23.25 22.5V22.5C22.9739 22.5 22.75 22.2761 22.75 22V22C22.75 21.7239 22.9739 21.5 23.25 21.5ZM22.75 25V25C22.75 25.2761 22.9739 25.5 23.25 25.5V25.5C23.5261 25.5 23.75 25.2761 23.75 25V25C23.75 24.7239 23.5261 24.5 23.25 24.5V24.5C22.9739 24.5 22.75 24.7239 22.75 25ZM20.25 25.5V25.5C20.5261 25.5 20.75 25.2761 20.75 25V25C20.75 24.7239 20.5261 24.5 20.25 24.5V24.5C19.9739 24.5 19.75 24.7239 19.75 25V25C19.75 25.2761 19.9739 25.5 20.25 25.5ZM20.25 22.5V22.5C20.5261 22.5 20.75 22.2761 20.75 22V22C20.75 21.7239 20.5261 21.5 20.25 21.5V21.5C19.9739 21.5 19.75 21.7239 19.75 22V22C19.75 22.2761 19.9739 22.5 20.25 22.5ZM17.25 24.5V24.5C17.5261 24.5 17.75 24.7239 17.75 25V25C17.75 25.2761 17.5261 25.5 17.25 25.5V25.5C16.9739 25.5 16.75 25.2761 16.75 25V25C16.75 24.7239 16.9739 24.5 17.25 24.5ZM17.25 22.5V22.5C17.5261 22.5 17.75 22.2761 17.75 22V22C17.75 21.7239 17.5261 21.5 17.25 21.5V21.5C16.9739 21.5 16.75 21.7239 16.75 22V22C16.75 22.2761 16.9739 22.5 17.25 22.5ZM14.75 25V25C14.75 25.2761 14.5261 25.5 14.25 25.5V25.5C13.9739 25.5 13.75 25.2761 13.75 25V25C13.75 24.7239 13.9739 24.5 14.25 24.5V24.5C14.5261 24.5 14.75 24.7239 14.75 25ZM14.75 22V22C14.75 22.2761 14.5261 22.5 14.25 22.5V22.5C13.9739 22.5 13.75 22.2761 13.75 22V22C13.75 21.7239 13.9739 21.5 14.25 21.5V21.5C14.5261 21.5 14.75 21.7239 14.75 22Z" stroke="white" stroke-width="1.5" stroke-linecap="round"/>
</svg>
