<svg width="25" height="24" viewBox="0 0 25 24" fill="none" xmlns="http://www.w3.org/2000/svg">
<path d="M7.4563 10.8089C5.66291 10.6116 4.73077 8.74811 4.73077 6.91304C4.73077 4.97244 4.75491 3 7.77424 3C9.19145 3 9.94879 3.43454 10.3535 4.0964C10.0874 4.17349 9.8323 4.27197 9.58964 4.39433C8.81707 4.7839 8.27497 5.36371 7.9258 6.03366C7.33535 7.16645 7.33774 8.5387 7.33925 9.39964L7.33938 9.52174C7.33938 9.94493 7.3772 10.3785 7.4563 10.8089Z" fill="#F6F6F4"/>
<path d="M8.04312 12.5652H7.33954C4.07867 12.5652 2.12207 14.0435 2.12207 18.3913H4.98616C5.26222 17.1213 5.77335 16.2849 6.57374 15.4118C7.25643 14.6671 8.07355 14.167 8.96714 13.8561C8.76524 13.652 8.58304 13.4308 8.42124 13.1978C8.28068 12.9953 8.15484 12.7837 8.04312 12.5652Z" fill="#F6F6F4"/>
<path d="M9.07851 9.52174C9.07851 11.4623 10.121 13.4348 12.122 13.4348C14.123 13.4348 15.1655 11.4623 15.1655 9.52174C15.1655 7.58114 15.1413 5.6087 12.122 5.6087C9.10266 5.6087 9.07851 7.58114 9.07851 9.52174Z" fill="#F6F6F4"/>
<path d="M17.7742 21C17.7742 17.5217 16.5424 15.1739 12.5569 15.1739H11.6873C8.42642 15.1739 6.46982 16.6522 6.46982 21H17.7742Z" fill="#F6F6F4"/>
<path d="M16.4699 3C15.0527 3 14.2953 3.43457 13.8907 4.09646C14.1567 4.17355 14.4117 4.272 14.6543 4.39433C15.4269 4.7839 15.969 5.36371 16.3182 6.03366C16.9086 7.16645 16.9062 8.5387 16.9047 9.39964L16.9046 9.52174C16.9046 9.94495 16.8668 10.3786 16.7877 10.8089C18.5812 10.6118 19.5134 8.74816 19.5134 6.91304C19.5134 4.97244 19.4892 3 16.4699 3Z" fill="#F6F6F4"/>
<path d="M18.057 15.877C18.6679 16.7007 19.0435 17.3922 19.2599 18.3913H22.1221C22.1221 14.913 20.8903 12.5652 16.9048 12.5652H16.2009C16.0891 12.7837 15.9633 12.9953 15.8227 13.1978C15.6608 13.431 15.4785 13.6522 15.2764 13.8566C16.414 14.252 17.3512 14.9255 18.057 15.877Z" fill="#F6F6F4"/>
</svg>
