<svg width="16" height="16" viewBox="0 0 16 16" fill="none" xmlns="http://www.w3.org/2000/svg">
<path fill-rule="evenodd" clip-rule="evenodd" d="M5 6H4C3.44772 6 3 6.44772 3 7V13C3 13.5523 3.44772 14 4 14H12C12.5523 14 13 13.5523 13 13V7C13 6.44772 12.5523 6 12 6H11V5C11 3.34315 9.65685 2 8 2C6.34315 2 5 3.34315 5 5V6ZM6 6H10V5C10 3.89543 9.10457 3 8 3C6.89543 3 6 3.89543 6 5V6ZM6.5 10C6.5 9.17157 7.17157 8.5 8 8.5C8.82843 8.5 9.5 9.17157 9.5 10C9.5 10.8284 8.82843 11.5 8 11.5C7.17157 11.5 6.5 10.8284 6.5 10Z" fill="#8A8C8C"/>
</svg>
