<svg width="25" height="25" viewBox="0 0 25 25" fill="none" xmlns="http://www.w3.org/2000/svg">
<path fill-rule="evenodd" clip-rule="evenodd" d="M4.04883 4.53516C4.04883 3.53516 5.04345 2.53516 6.03808 2.53516H12.2795C12.7738 2.53516 13.0225 2.53516 13.2351 2.62316C13.4503 2.71224 13.6286 2.89149 13.9873 3.25218L19.2961 8.72835C19.6836 9.11796 19.8716 9.307 19.9629 9.53516C20.0488 9.75019 20.0488 9.99997 20.0488 10.4852L19.9629 20.5352C19.9629 21.5352 18.9682 22.5352 17.9736 22.5352H6.03808C5.04345 22.5352 4.04883 21.5352 4.04883 20.5352V4.53516ZM17.9736 9.53516L13.0005 4.53516V8.53516C13.0005 9.08744 13.4458 9.53516 13.9951 9.53516H17.9736ZM14.9897 11.5352L16.979 12.5352L11.0112 19.5352L6.79137 15.2925L8.19799 13.8646L11.0112 16.5352L14.9897 11.5352Z" fill="#F6F6F4"/>
</svg>
