<svg width="557" height="19" viewBox="0 0 557 19" fill="none" xmlns="http://www.w3.org/2000/svg">
<path d="M0.88 18V1.2H26.416V5.28H6.4V7.536H21.448C22.792 7.536 23.944 7.744 24.904 8.16C25.864 8.576 26.592 9.176 27.088 9.96C27.6 10.728 27.856 11.664 27.856 12.768C27.856 13.584 27.712 14.32 27.424 14.976C27.136 15.616 26.712 16.168 26.152 16.632C25.608 17.08 24.936 17.424 24.136 17.664C23.352 17.888 22.456 18 21.448 18H0.88ZM6.4 11.496V14.04H20.44C20.856 14.04 21.192 14 21.448 13.92C21.704 13.824 21.896 13.68 22.024 13.488C22.152 13.296 22.216 13.056 22.216 12.768C22.216 12.464 22.152 12.224 22.024 12.048C21.896 11.856 21.704 11.72 21.448 11.64C21.192 11.544 20.856 11.496 20.44 11.496H6.4ZM32.5441 18V1.2H51.1681C52.4481 1.2 53.5921 1.344 54.6001 1.632C55.6241 1.92 56.4881 2.344 57.1921 2.904C57.9121 3.464 58.4561 4.144 58.8241 4.944C59.1921 5.728 59.3761 6.632 59.3761 7.656C59.3761 9 59.0481 10.16 58.3921 11.136C57.7521 12.096 56.8161 12.832 55.5841 13.344C54.3681 13.856 52.8961 14.112 51.1681 14.112H38.3041V18H32.5441ZM38.3041 5.52V9.792H50.2561C51.0081 9.792 51.6241 9.72 52.1041 9.576C52.5841 9.416 52.9361 9.184 53.1601 8.88C53.3841 8.56 53.4961 8.16 53.4961 7.68C53.4961 7.168 53.3841 6.76 53.1601 6.456C52.9361 6.136 52.5841 5.904 52.1041 5.76C51.6241 5.6 51.0081 5.52 50.2561 5.52H38.3041ZM67.2831 18L71.7951 13.08L59.8191 1.2H66.7791L75.2031 9.456L82.7151 1.2H89.5071L74.2191 18H67.2831ZM89.6688 9.6C89.6688 8.48 89.8848 7.464 90.3168 6.552C90.7648 5.624 91.4128 4.808 92.2608 4.104C93.1248 3.384 94.1808 2.792 95.4288 2.328C96.6928 1.848 98.1408 1.488 99.7728 1.248C101.421 0.991999 103.253 0.863999 105.269 0.863999C108.021 0.863999 110.397 1.08 112.397 1.512C114.397 1.944 116.005 2.584 117.221 3.432C118.437 4.28 119.253 5.336 119.669 6.6L113.453 7.824C113.213 7.216 112.765 6.72 112.109 6.336C111.453 5.936 110.557 5.648 109.421 5.472C108.301 5.28 106.917 5.184 105.269 5.184C103.925 5.184 102.725 5.24 101.669 5.352C100.613 5.464 99.7008 5.632 98.9328 5.856C98.1648 6.08 97.5248 6.368 97.0128 6.72C96.5168 7.072 96.1488 7.488 95.9088 7.968C95.6688 8.448 95.5488 8.992 95.5488 9.6C95.5488 10.224 95.6688 10.776 95.9088 11.256C96.1488 11.72 96.5168 12.128 97.0128 12.48C97.5248 12.832 98.1648 13.12 98.9328 13.344C99.7008 13.568 100.605 13.736 101.645 13.848C102.701 13.96 103.909 14.016 105.269 14.016C106.965 14.016 108.381 13.92 109.517 13.728C110.653 13.536 111.541 13.24 112.181 12.84C112.837 12.424 113.269 11.904 113.477 11.28L119.597 12.456C119.165 13.768 118.341 14.864 117.125 15.744C115.925 16.608 114.333 17.256 112.349 17.688C110.381 18.12 108.021 18.336 105.269 18.336C103.589 18.336 102.037 18.248 100.613 18.072C99.2048 17.912 97.9168 17.664 96.7488 17.328C95.5968 16.992 94.5808 16.576 93.7008 16.08C92.8208 15.584 92.0768 15.016 91.4688 14.376C90.8768 13.72 90.4288 13 90.1248 12.216C89.8208 11.416 89.6688 10.544 89.6688 9.6ZM123.739 18V1.2H129.499V7.272H147.091V1.2H152.851V18H147.091V11.592H129.499V18H123.739ZM164.374 18H158.614V1.2H164.374V12.648L181.366 1.2H187.126V18H181.366V6.552L164.374 18ZM192.88 18V1.2H198.64V8.208L212.368 1.2H221.752L205.888 9.096L222.16 18H212.104L198.64 10.632V18H192.88ZM248.742 18L246.462 15.072H231.366L229.086 18H222.414L236.046 1.2H241.998L255.63 18H248.742ZM243.39 11.112L238.926 5.352L234.438 11.112H243.39ZM258.025 18V13.392H264.025V18H258.025ZM269.31 18V1.2H275.07V8.208L288.798 1.2H298.182L282.318 9.096L298.59 18H288.534L275.07 10.632V18H269.31ZM314.289 18.336C312.225 18.336 310.353 18.216 308.673 17.976C307.009 17.736 305.537 17.384 304.257 16.92C302.993 16.44 301.929 15.856 301.065 15.168C300.217 14.464 299.569 13.656 299.121 12.744C298.689 11.816 298.473 10.784 298.473 9.648C298.473 8.496 298.689 7.456 299.121 6.528C299.553 5.6 300.201 4.784 301.065 4.08C301.929 3.376 302.993 2.784 304.257 2.304C305.537 1.824 307.009 1.464 308.673 1.224C310.353 0.983999 312.225 0.863999 314.289 0.863999C316.353 0.863999 318.217 0.983999 319.881 1.224C321.561 1.464 323.033 1.824 324.297 2.304C325.577 2.784 326.649 3.376 327.513 4.08C328.377 4.784 329.025 5.6 329.457 6.528C329.889 7.456 330.105 8.496 330.105 9.648C330.105 10.784 329.881 11.816 329.433 12.744C329.001 13.656 328.353 14.464 327.489 15.168C326.641 15.856 325.577 16.44 324.297 16.92C323.033 17.384 321.561 17.736 319.881 17.976C318.217 18.216 316.353 18.336 314.289 18.336ZM314.289 14.016C315.665 14.016 316.889 13.96 317.961 13.848C319.049 13.736 319.985 13.568 320.769 13.344C321.553 13.12 322.201 12.84 322.713 12.504C323.225 12.152 323.601 11.744 323.841 11.28C324.097 10.8 324.225 10.256 324.225 9.648C324.225 9.024 324.097 8.472 323.841 7.992C323.601 7.512 323.225 7.096 322.713 6.744C322.201 6.392 321.553 6.104 320.769 5.88C319.985 5.64 319.049 5.464 317.961 5.352C316.889 5.24 315.665 5.184 314.289 5.184C312.913 5.184 311.681 5.24 310.593 5.352C309.521 5.464 308.593 5.64 307.809 5.88C307.025 6.104 306.377 6.392 305.865 6.744C305.353 7.096 304.969 7.512 304.713 7.992C304.473 8.472 304.353 9.024 304.353 9.648C304.353 10.256 304.473 10.8 304.713 11.28C304.969 11.744 305.353 12.152 305.865 12.504C306.377 12.84 307.025 13.12 307.809 13.344C308.593 13.568 309.521 13.736 310.593 13.848C311.681 13.96 312.913 14.016 314.289 14.016ZM334.185 18V1.2H355.065C356.089 1.2 357.009 1.296 357.825 1.488C358.657 1.68 359.369 1.96 359.961 2.328C360.553 2.696 361.009 3.152 361.329 3.696C361.649 4.224 361.809 4.832 361.809 5.52C361.809 5.984 361.729 6.432 361.569 6.864C361.409 7.28 361.153 7.672 360.801 8.04C360.465 8.392 360.025 8.704 359.481 8.976C359.209 9.12 358.897 9.248 358.545 9.36C359.265 9.52 359.881 9.728 360.393 9.984C361.145 10.384 361.697 10.88 362.049 11.472C362.417 12.048 362.601 12.712 362.601 13.464C362.601 14.408 362.337 15.224 361.809 15.912C361.281 16.584 360.513 17.104 359.505 17.472C358.513 17.824 357.305 18 355.881 18H334.185ZM339.825 11.376V14.4H354.321C354.849 14.4 355.281 14.352 355.617 14.256C355.953 14.144 356.201 13.976 356.361 13.752C356.521 13.528 356.601 13.24 356.601 12.888C356.601 12.536 356.521 12.248 356.361 12.024C356.201 11.8 355.953 11.64 355.617 11.544C355.281 11.432 354.849 11.376 354.321 11.376H339.825ZM339.825 4.8V7.728H353.841C354.209 7.728 354.521 7.704 354.777 7.656C355.033 7.592 355.249 7.504 355.425 7.392C355.601 7.264 355.729 7.112 355.809 6.936C355.889 6.744 355.929 6.52 355.929 6.264C355.929 5.928 355.857 5.656 355.713 5.448C355.569 5.224 355.337 5.064 355.017 4.968C354.713 4.856 354.321 4.8 353.841 4.8H339.825ZM381.414 18.336C379.35 18.336 377.478 18.216 375.798 17.976C374.134 17.736 372.662 17.384 371.382 16.92C370.118 16.44 369.054 15.856 368.19 15.168C367.342 14.464 366.694 13.656 366.246 12.744C365.814 11.816 365.598 10.784 365.598 9.648C365.598 8.496 365.814 7.456 366.246 6.528C366.678 5.6 367.326 4.784 368.19 4.08C369.054 3.376 370.118 2.784 371.382 2.304C372.662 1.824 374.134 1.464 375.798 1.224C377.478 0.983999 379.35 0.863999 381.414 0.863999C383.478 0.863999 385.342 0.983999 387.006 1.224C388.686 1.464 390.158 1.824 391.422 2.304C392.702 2.784 393.774 3.376 394.638 4.08C395.502 4.784 396.15 5.6 396.582 6.528C397.014 7.456 397.23 8.496 397.23 9.648C397.23 10.784 397.006 11.816 396.558 12.744C396.126 13.656 395.478 14.464 394.614 15.168C393.766 15.856 392.702 16.44 391.422 16.92C390.158 17.384 388.686 17.736 387.006 17.976C385.342 18.216 383.478 18.336 381.414 18.336ZM381.414 14.016C382.79 14.016 384.014 13.96 385.086 13.848C386.174 13.736 387.11 13.568 387.894 13.344C388.678 13.12 389.326 12.84 389.838 12.504C390.35 12.152 390.726 11.744 390.966 11.28C391.222 10.8 391.35 10.256 391.35 9.648C391.35 9.024 391.222 8.472 390.966 7.992C390.726 7.512 390.35 7.096 389.838 6.744C389.326 6.392 388.678 6.104 387.894 5.88C387.11 5.64 386.174 5.464 385.086 5.352C384.014 5.24 382.79 5.184 381.414 5.184C380.038 5.184 378.806 5.24 377.718 5.352C376.646 5.464 375.718 5.64 374.934 5.88C374.15 6.104 373.502 6.392 372.99 6.744C372.478 7.096 372.094 7.512 371.838 7.992C371.598 8.472 371.478 9.024 371.478 9.648C371.478 10.256 371.598 10.8 371.838 11.28C372.094 11.744 372.478 12.152 372.99 12.504C373.502 12.84 374.15 13.12 374.934 13.344C375.718 13.568 376.646 13.736 377.718 13.848C378.806 13.96 380.038 14.016 381.414 14.016ZM401.31 18V1.2H419.934C421.214 1.2 422.358 1.344 423.366 1.632C424.39 1.92 425.254 2.344 425.958 2.904C426.678 3.464 427.222 4.144 427.59 4.944C427.958 5.728 428.142 6.632 428.142 7.656C428.142 9 427.814 10.16 427.158 11.136C426.518 12.096 425.582 12.832 424.35 13.344C423.134 13.856 421.662 14.112 419.934 14.112H407.07V18H401.31ZM407.07 5.52V9.792H419.022C419.774 9.792 420.39 9.72 420.87 9.576C421.35 9.416 421.702 9.184 421.926 8.88C422.15 8.56 422.262 8.16 422.262 7.68C422.262 7.168 422.15 6.76 421.926 6.456C421.702 6.136 421.35 5.904 420.87 5.76C420.39 5.6 419.774 5.52 419.022 5.52H407.07ZM432.318 18V1.2H438.078V8.208L451.806 1.2H461.19L445.326 9.096L461.598 18H451.542L438.078 10.632V18H432.318ZM469.765 18H464.005V1.2H469.765V12.648L486.757 1.2H492.517V18H486.757V6.552L469.765 18ZM498.271 18V1.2H504.031V7.272H521.623V1.2H527.383V18H521.623V11.592H504.031V18H498.271ZM533.146 18V1.2H556.186V5.52H538.906V18H533.146Z" fill="#EF3B24"/>
</svg>
