<svg width="294" height="304" viewBox="0 0 294 304" fill="none" xmlns="http://www.w3.org/2000/svg">
<circle cx="147" cy="146" r="140" fill="#EF3B24" stroke="white" stroke-width="10"/>
<path d="M158.11 82.5441C149.499 79.7164 139.848 81.3659 136.099 82.5441C133.529 83.1721 134.493 78.2001 135.296 75.6356C135.939 73.8683 138.156 70.0124 141.883 68.7271C145.61 67.4417 148.904 68.1334 151.041 68.7271C153.933 69.5304 155.829 71.2976 157.628 74.5109C159.877 78.5275 159.556 83.0261 158.11 82.5441Z" stroke="white" stroke-width="10" stroke-linecap="round"/>
<path d="M109.589 111.785C111.774 101.374 118.64 94.5939 121.8 92.5053C124.21 90.6309 129.929 86.7536 133.528 86.2394C145.225 84.44 156.182 85.9181 160.198 86.8821C163.144 87.5247 170.449 90.1275 176.104 95.3972C181.759 100.667 185.53 113.231 186.708 118.854C187.511 122.764 189.053 132.928 188.796 142.311C188.698 145.918 188.896 149.481 189.23 152.694C190.031 160.405 192.818 167.707 196.026 174.765L200.686 182.959C200.755 183.081 200.828 183.21 200.905 183.345C205.838 191.972 213.514 205.429 203.577 205.291H196.83C164.59 205.13 98.0216 204.905 89.6671 205.291C81.3126 205.676 82.5443 199.775 84.2045 196.776L88.5424 190.671C89.9884 188.689 93.1053 184.34 94.005 182.798C94.9047 181.256 99.3069 172.408 101.396 168.178C102.306 165.982 104.159 161.044 104.287 158.859C104.416 156.674 105.519 139.526 106.055 131.225C106.323 129.083 107.404 122.196 109.589 111.785Z" stroke="white" stroke-width="10" stroke-linecap="round"/>
<path d="M138.5 205H109.5C110.667 209.333 115.2 218 124 218C132.8 218 137.333 209.333 138.5 205Z" stroke="white" stroke-width="10" stroke-linecap="round"/>
</svg>
